<?xml version="1.0" encoding="UTF-8"?>
<!-- Generated by Pixelmator Pro 3.2.3 -->
<svg width="750" height="750" viewBox="0 0 750 750" xmlns="http://www.w3.org/2000/svg" xmlns:xlink="http://www.w3.org/1999/xlink">
    <path id="path1" fill="#ff634d" fill-rule="evenodd" stroke="none" d="M 256 528.746887 C 246.506149 529.059265 245.005142 528.856567 240.335724 526.631897 C 237.495361 525.278625 233.288422 522.288452 230.986969 519.986938 C 228.685516 517.685547 225.433502 512.877014 223.760284 509.301422 C 220.858917 503.101379 220.744095 502.364136 221.280151 493.378845 C 221.670761 486.831665 222.470963 482.658569 223.903 479.700348 C 225.080948 477.267059 233.789658 467.236084 244.231873 456.284882 C 254.279343 445.747681 275.712067 423.825684 291.860138 407.569305 C 320.145569 379.094208 321.205719 377.887817 320.823212 374.611328 C 320.516357 371.982941 318.390015 369.018768 311.463074 361.563019 C 306.533386 356.257019 292.751495 342.147186 280.836639 330.207855 C 268.921814 318.268524 251.639282 300.625 242.43103 291 C 230.23259 278.249451 225.021896 272.051727 223.231552 268.163666 C 221.035049 263.393494 220.816711 261.801941 221.173889 253.163666 C 221.517517 244.853027 221.974319 242.767303 224.436417 238.266968 C 226.011047 235.388794 228.889053 231.444275 230.832001 229.501343 C 232.774948 227.558411 236.870087 224.73822 239.932312 223.234375 C 244.87146 220.808716 246.628922 220.5 255.5 220.5 C 263.299927 220.5 266.337799 220.916138 269.308044 222.391479 C 271.402496 223.431824 278.95285 229.731812 286.08667 236.391479 C 293.22049 243.051178 314.701385 264.042114 333.822052 283.038025 C 354.64563 303.725769 370.097412 318.292877 372.353699 319.363556 C 375.926086 321.058746 376.259399 321.062134 378.810272 319.428955 C 380.289612 318.481781 396.433899 302.810303 414.686432 284.603424 C 432.938995 266.396545 454.313995 245.464111 462.186432 238.086914 C 470.958252 229.866943 478.232178 223.906128 480.973999 222.69104 C 484.36261 221.18927 487.817505 220.682983 495.215149 220.604126 C 504.226776 220.508057 505.427643 220.732056 510.739166 223.5 C 513.905396 225.150024 518.230286 228.233398 520.350037 230.352051 C 522.469788 232.470642 525.378296 236.745667 526.813477 239.852051 C 529.046753 244.685852 529.417786 246.84024 529.387512 254.797791 C 529.359619 262.117615 528.910706 265.00415 527.2771 268.366577 C 526.135803 270.715668 520.544067 277.664886 514.851013 283.809326 C 509.157959 289.953796 488.137482 311.727478 468.138855 332.195343 C 448.140228 352.663177 431.103119 370.439148 430.278625 371.69751 C 429.315735 373.167084 429.022369 374.952942 429.458405 376.690338 C 429.89212 378.418304 441.760529 391.055939 462.318665 411.680298 C 480.018402 429.437073 501.322968 451.194489 509.66217 460.030121 C 518.913025 469.831635 525.700684 477.928284 527.072021 480.797455 C 528.887329 484.595398 529.335571 487.327454 529.402039 495 C 529.47522 503.447937 529.177429 505.12677 526.71283 510.159668 C 525.188477 513.272461 522.228943 517.583801 520.136047 519.740417 C 518.043152 521.896973 514.118835 524.750122 511.415375 526.08075 C 507.119232 528.195251 505.114258 528.5 495.5 528.5 C 486.606903 528.5 483.747467 528.126709 480.571045 526.551147 C 478.410095 525.479248 471.522827 519.854248 465.265991 514.051147 C 459.009125 508.248016 437.361969 486.995483 417.161194 466.823334 C 392.76712 442.463806 379.495544 429.911499 377.642517 429.446411 C 376.108002 429.061279 373.819672 429.216766 372.557281 429.791931 C 371.294922 430.367126 356.8862 444.036743 340.537903 460.168854 C 324.189606 476.300995 302.643127 497.303284 292.65686 506.840668 C 282.670593 516.378052 272.700012 525.130859 270.5 526.291382 C 267.343231 527.956604 264.28653 528.474243 256 528.746887 Z"/>
    <path id="-" fill="#ff634d" fill-rule="evenodd" stroke="none" d="M 375 750 C 167.893433 750 0 582.106567 0 375 C 0 167.893372 167.893433 0 375 0 C 582.106628 0 750 167.893372 750 375 C 750 582.106567 582.106628 750 375 750 Z M 375 670.894531 C 539.637329 670.894531 673.101563 538.417847 673.101563 375 C 673.101563 211.582153 539.637329 79.105469 375 79.105469 C 210.362686 79.105469 76.898438 211.582153 76.898438 375 C 76.898438 538.417847 210.362686 670.894531 375 670.894531 Z"/>
</svg>
