<?xml version="1.0" encoding="UTF-8"?>
<!-- Generated by Pixelmator Pro 3.2.3 -->
<svg width="750" height="750" viewBox="0 0 750 750"
     xmlns="http://www.w3.org/2000/svg">
    <g id="-">
        <path id="--3" fill="#000000" fill-rule="evenodd" stroke="none"
              d="M 86.617859 749.843323 C 83.803833 749.914063 82.524864 749.822632 80.648842 749.416626 C 79.335663 749.132446 77.1959 748.528076 75.893845 748.07373 C 74.591751 747.619324 72.326042 746.645142 70.85894 745.908936 C 69.391808 745.172668 67.324883 743.985535 66.265762 743.270874 C 65.206635 742.556213 63.532795 741.157837 62.546104 740.163391 C 61.559414 739.169006 60.35569 737.689453 59.871151 736.87561 C 59.386612 736.061707 58.683662 734.520203 58.309048 733.450073 C 57.780701 731.940735 57.600426 730.819946 57.505363 728.45343 C 57.418785 726.297974 57.555695 723.923279 57.971825 720.362061 C 58.414787 716.571411 58.52169 714.565125 58.402931 712.270752 C 58.316063 710.592773 58.006287 708.240051 57.714542 707.04248 C 57.422775 705.844849 56.890415 704.142273 56.531498 703.258972 C 56.172581 702.375671 55.461929 700.966553 54.952271 700.127563 C 54.4426 699.288513 53.401016 697.887207 52.637646 697.013489 C 51.874264 696.139771 50.522602 694.839111 49.633945 694.123108 C 48.7453 693.407166 46.92564 692.292297 45.59026 691.645691 C 44.254871 690.999023 42.285099 690.237305 41.212975 689.95282 C 40.140862 689.668396 38.069859 689.306274 36.610775 689.148132 C 35.095085 688.983887 30.883509 688.902893 26.785948 688.959229 C 20.772079 689.041992 19.251377 688.984253 17.368162 688.601624 C 16.045111 688.332825 14.239299 687.708801 12.97329 687.083008 C 11.593737 686.401001 10.147598 685.394165 8.934395 684.270874 C 7.894966 683.308533 6.428351 681.604309 5.675265 680.483765 C 4.922169 679.363159 3.841176 677.491272 3.273046 676.324036 C 2.704915 675.156738 1.89029 673.111084 1.462773 671.778076 C 1.035256 670.445068 0.484857 668.257935 0.239671 666.917725 C -0.076621 665.188904 -0.165654 663.696594 -0.066808 661.78064 C 0.033227 659.841431 0.273554 658.482605 0.785736 656.960449 C 1.178011 655.794556 1.907469 654.168213 2.406754 653.346252 C 2.906039 652.524353 4.089252 651.015137 5.03613 649.992432 C 5.983 648.969727 8.221921 646.903931 10.011497 645.401855 C 11.801081 643.89978 14.283385 641.634277 15.527738 640.367432 C 16.772089 639.100525 18.406658 637.172241 19.160128 636.082336 C 19.913605 634.992371 20.944052 633.274475 21.450016 632.264771 C 21.955988 631.255066 22.618172 629.690491 22.921534 628.787842 C 23.224894 627.885315 23.667253 626.034912 23.904564 624.675903 C 24.210098 622.926086 24.288954 621.464661 24.174721 619.668396 C 24.086002 618.273315 23.781826 616.226379 23.498764 615.119629 C 23.21571 614.012939 22.613161 612.235657 22.159763 611.170166 C 21.706367 610.104736 20.675833 608.241699 19.869696 607.030151 C 19.063559 605.818604 17.46854 603.839111 16.325209 602.631226 C 15.181878 601.423401 12.565578 599.025879 10.511198 597.303467 C 8.456826 595.581055 5.967843 593.301941 4.980131 592.238892 C 3.99241 591.17572 2.787848 589.644043 2.303312 588.835083 C 1.818776 588.026123 1.136251 586.541626 0.786586 585.536133 C 0.436921 584.53064 0.033941 582.679321 -0.108924 581.421997 C -0.265732 580.041992 -0.277967 578.260498 -0.139808 576.927002 C -0.013927 575.712097 0.269697 573.942139 0.490464 572.993713 C 0.711232 572.045288 1.213738 570.373962 1.607142 569.279663 C 2.000546 568.185303 2.741457 566.454285 3.253614 565.432922 C 3.765772 564.411621 4.666737 562.865662 5.255768 561.99762 C 5.844791 561.129517 7.064971 559.69696 7.967269 558.814148 C 8.869568 557.931274 10.259775 556.81958 11.056609 556.343689 C 11.853452 555.867798 13.2136 555.229431 14.079151 554.925171 C 14.944714 554.62085 16.68824 554.24115 17.953661 554.08136 C 19.677492 553.863647 21.784159 553.876587 26.35482 554.132874 C 30.987753 554.3927 33.114986 554.403931 35.197933 554.179688 C 36.706417 554.017273 38.949398 553.643433 40.182339 553.348999 C 41.415272 553.054504 43.518291 552.295166 44.855721 551.661682 C 46.19315 551.028076 48.040295 549.998535 48.960491 549.373596 C 49.880692 548.748718 51.393547 547.458496 52.322414 546.50647 C 53.251274 545.554504 54.547649 543.96875 55.20322 542.982605 C 55.858814 541.99646 56.822178 540.265503 57.344051 539.135986 C 57.865913 538.00647 58.636795 535.720642 59.057106 534.056335 C 59.545731 532.121582 59.91806 529.72345 60.089542 527.406433 C 60.237076 525.41333 60.411098 521.394897 60.476269 518.476685 C 60.551422 515.111084 60.747566 512.443298 61.012672 511.181213 C 61.242516 510.086884 61.974876 508.076599 62.640125 506.713867 C 63.538525 504.873474 64.331413 503.728973 65.722343 502.264709 C 66.752312 501.180389 68.383301 499.772217 69.346725 499.135498 C 70.310158 498.498657 72.088943 497.482239 73.299553 496.876801 C 74.510185 496.271332 76.53965 495.42981 77.809471 495.006775 C 79.07933 494.58374 81.130997 494.03421 82.368759 493.785614 C 83.606529 493.537079 85.695686 493.329529 87.011322 493.324463 C 88.326973 493.319336 90.279594 493.513977 91.350517 493.756989 C 92.42141 493.999908 94.100395 494.620544 95.081581 495.136169 C 96.062752 495.651764 97.6371 496.71405 98.58007 497.496765 C 99.523079 498.27948 101.597855 500.455017 103.190689 502.33136 C 104.783546 504.207642 107.027603 506.671112 108.177498 507.805786 C 109.327385 508.94043 111.124786 510.47348 112.171776 511.212646 C 113.218735 511.951813 114.996742 513.022461 116.122894 513.592041 C 117.249046 514.161499 119.186005 514.921753 120.427246 515.281433 C 121.66851 515.641113 123.851959 516.055237 125.279411 516.201782 C 126.985619 516.376892 128.737381 516.379761 130.392822 516.210083 C 131.777756 516.068237 133.865952 515.706665 135.033218 515.406738 C 136.200516 515.106812 138.267166 514.335938 139.625824 513.693604 C 140.984482 513.051331 142.894562 511.968018 143.870468 511.286255 C 144.846344 510.604462 146.370895 509.409607 147.258316 508.630981 C 148.145737 507.852356 150.234879 505.644348 151.900879 503.724243 C 153.566864 501.804138 155.864212 499.363892 157.006058 498.301392 C 158.147949 497.238892 159.878937 495.954285 160.852768 495.446686 C 161.826569 494.939148 163.335297 494.302368 164.205475 494.031677 C 165.397171 493.660919 166.620682 493.53949 169.163742 493.53949 C 171.847641 493.53949 173.04628 493.668701 175.009705 494.169617 C 176.368134 494.516205 178.51828 495.246338 179.787811 495.792084 C 181.057343 496.33786 182.998291 497.346741 184.101013 498.034027 C 185.203735 498.721375 186.76329 499.844604 187.566681 500.530151 C 188.370071 501.215698 189.568314 502.430267 190.229462 503.229126 C 190.89061 504.028015 191.904922 505.636658 192.483536 506.803955 C 193.108398 508.064514 193.711777 509.817566 193.969543 511.121307 C 194.317734 512.882446 194.369034 514.167236 194.228989 517.62085 C 194.133011 519.988403 193.979126 523.400696 193.88707 525.203857 C 193.783905 527.224487 193.843536 529.503906 194.042496 531.145569 C 194.220032 532.610413 194.65596 534.812012 195.01123 536.037964 C 195.366486 537.263916 196.065506 539.126587 196.56456 540.177246 C 197.06366 541.227844 198.065613 542.923096 198.791168 543.944458 C 199.516693 544.96582 200.695435 546.406616 201.410553 547.146057 C 202.125702 547.885559 203.539581 549.117981 204.552521 549.884827 C 205.565475 550.651672 207.349747 551.745605 208.517548 552.315918 C 209.685318 552.886169 211.668442 553.644531 212.924438 554.001221 C 214.180466 554.35791 216.448685 554.793945 217.964951 554.970276 C 219.633636 555.164307 221.857712 555.221924 223.59967 555.11615 C 225.182495 555.02002 227.331345 554.826294 228.374847 554.685608 C 229.418381 554.544922 231.620377 554.306274 233.268188 554.155334 C 235.354706 553.964111 236.949738 553.965942 238.522598 554.161438 C 239.764725 554.315796 241.46077 554.693604 242.291489 555.001038 C 243.122284 555.308472 244.577911 556.058838 245.526337 556.668457 C 246.474777 557.278076 247.96701 558.560242 248.842484 559.5177 C 249.717896 560.475098 250.990479 562.197754 251.67038 563.345703 C 252.350296 564.493652 253.338074 566.477783 253.865448 567.754761 C 254.392807 569.031738 255.122574 571.197021 255.487076 572.566528 C 255.851593 573.936035 256.246307 576.114502 256.364227 577.407593 C 256.482178 578.700623 256.491272 580.661865 256.38443 581.765808 C 256.277618 582.869751 255.89502 584.621826 255.534241 585.659241 C 255.173462 586.696655 254.336197 588.360107 253.673615 589.355713 C 253.011078 590.35144 251.53363 592.066101 250.390411 593.16626 C 249.247253 594.266357 247.237473 596.070313 245.924271 597.175049 C 244.611115 598.279785 242.402512 600.375366 241.016403 601.831848 C 239.608978 603.310791 237.859863 605.505981 237.055069 606.803467 C 236.262436 608.081299 235.2052 610.144714 234.705673 611.388855 C 234.206131 612.632996 233.55986 614.799622 233.269592 616.203552 C 232.837952 618.291138 232.765091 619.432739 232.869812 622.470215 C 232.959335 625.066833 233.166473 626.815552 233.558289 628.282288 C 233.866501 629.436218 234.51944 631.307251 235.009232 632.440186 C 235.499039 633.57312 236.583878 635.528076 237.419846 636.784546 C 238.255875 638.041016 239.916534 640.049805 241.110153 641.248596 C 242.303772 642.447266 244.819153 644.74054 246.699936 646.344666 C 248.580688 647.948792 250.824142 650.097595 251.685349 651.119873 C 252.546585 652.14209 253.712524 653.899292 254.276398 655.024719 C 254.84024 656.150146 255.506073 657.990356 255.756073 659.114075 C 256.113556 660.720825 256.177277 661.870361 256.054382 664.495972 C 255.963272 666.443604 255.689575 668.609802 255.397522 669.694885 C 255.122223 670.717957 254.640488 672.240356 254.327042 673.078064 C 254.013672 673.91571 253.381393 675.346863 252.922043 676.258423 C 252.462662 677.169922 251.670197 678.572327 251.160965 679.374817 C 250.651718 680.177307 249.580566 681.583191 248.78067 682.498962 C 247.980713 683.414734 246.580261 684.69635 245.668472 685.346985 C 244.756714 685.997559 243.227005 686.896667 242.269135 687.34491 C 241.311264 687.793152 239.552734 688.361938 238.361282 688.608887 C 237.043167 688.88208 234.983521 689.057312 233.100952 689.056335 C 231.399185 689.055542 227.499908 688.949951 224.435822 688.821777 C 219.816605 688.628601 218.379776 688.661011 216.026398 689.011475 C 214.465302 689.244019 212.034439 689.816772 210.62442 690.284302 C 209.214371 690.751831 207.120544 691.699463 205.971481 692.390137 C 204.822357 693.08075 203.260956 694.165466 202.501648 694.800598 C 201.74231 695.435791 200.384918 696.885925 199.485199 698.023193 C 198.585434 699.160522 197.361771 701.074829 196.765884 702.277344 C 196.170044 703.479858 195.385803 705.487549 195.023193 706.738892 C 194.660568 707.990234 194.235855 709.934509 194.079361 711.059509 C 193.922897 712.18457 193.794876 714.126221 193.794876 715.374329 C 193.794876 716.622437 193.986404 719.628174 194.22049 722.05365 C 194.473938 724.679565 194.592499 727.644348 194.51358 729.381958 C 194.416367 731.521729 194.197388 732.866211 193.692612 734.422424 C 193.314026 735.589722 192.534515 737.281433 191.960419 738.181885 C 191.386353 739.082275 190.162262 740.554932 189.240204 741.454346 C 188.318161 742.35376 186.787079 743.602966 185.837784 744.230347 C 184.888489 744.857727 183.156754 745.846924 181.989471 746.428528 C 180.822205 747.010132 178.944046 747.794556 177.815811 748.171692 C 176.687546 748.548767 174.871994 749.041687 173.781311 749.266968 C 172.690613 749.492249 170.629211 749.674805 169.200455 749.672668 C 167.771683 749.670532 165.840332 749.489014 164.908569 749.269409 C 163.976776 749.049744 162.281555 748.384705 161.141342 747.791504 C 159.757813 747.071716 158.365982 746.036743 156.956757 744.679688 C 155.795395 743.561401 153.618256 741.154175 152.118652 739.330322 C 150.619019 737.506409 148.503922 735.141113 147.418396 734.074036 C 146.33287 733.006958 144.594376 731.530334 143.555069 730.792603 C 142.515793 730.054871 140.591049 728.928772 139.277878 728.290161 C 137.964676 727.65155 135.841827 726.859985 134.56044 726.531128 C 132.642883 726.039001 131.51619 725.933167 128.193481 725.933167 C 124.865883 725.933167 123.74369 726.038818 121.808388 726.534363 C 120.517014 726.86499 118.561165 727.551025 117.462036 728.058899 C 116.3629 728.566711 114.494659 729.629272 113.310379 730.420166 C 112.126129 731.21106 110.261803 732.687927 109.16748 733.702087 C 108.073158 734.716248 105.745239 737.248169 103.994339 739.32843 C 102.243423 741.408752 99.962883 743.901733 98.926468 744.868286 C 97.890053 745.8349 96.278427 747.076599 95.345055 747.627625 C 94.411705 748.17865 92.87207 748.882324 91.92366 749.191406 C 90.602806 749.621826 89.361145 749.774353 86.617859 749.843323 Z M 129.329498 681.089966 C 131.882904 681.030273 135.225555 680.792175 136.757599 680.560913 C 138.289658 680.329651 140.787048 679.837708 142.307358 679.467773 C 143.827682 679.097778 146.274979 678.377258 147.745789 677.866577 C 149.216629 677.355896 151.779037 676.293274 153.440033 675.505127 C 155.101074 674.71698 157.488693 673.457092 158.745834 672.705322 C 160.003006 671.953552 162.379944 670.330261 164.027863 669.098083 C 165.675812 667.865906 168.425537 665.462585 170.138412 663.757446 C 171.851242 662.052307 174.382767 659.14624 175.764069 657.2995 C 177.145325 655.452759 179.097092 652.500671 180.101318 650.739197 C 181.10556 648.977722 182.56221 646.015198 183.338303 644.155823 C 184.11438 642.296509 185.166962 639.324219 185.677322 637.550781 C 186.187668 635.777283 186.879883 632.673401 187.215546 630.653198 C 187.72551 627.584045 187.825867 625.998779 187.825867 621.011108 C 187.825867 616.041504 187.724747 614.433594 187.221893 611.407593 C 186.889694 609.408691 186.248749 606.483826 185.797577 604.90802 C 185.34639 603.332214 184.503479 600.815125 183.924408 599.314453 C 183.345322 597.813843 182.218979 595.313232 181.421387 593.757629 C 180.623749 592.201965 179.223221 589.788696 178.309067 588.394714 C 177.394897 587.000732 175.684998 584.665283 174.509262 583.204834 C 173.333542 581.744385 171.175491 579.401428 169.713577 577.998169 C 168.251678 576.595032 166.112732 574.729248 164.960358 573.852051 C 163.808014 572.974854 161.828812 571.581543 160.562164 570.75592 C 159.295502 569.930298 157.271317 568.729492 156.06398 568.087585 C 154.856628 567.445679 152.734665 566.450439 151.348526 565.876038 C 149.962402 565.301697 147.515106 564.411133 145.910095 563.897156 C 144.305099 563.383118 141.738434 562.704163 140.206375 562.388306 C 138.674332 562.07251 136.047943 561.673279 134.369995 561.501221 C 132.692032 561.329102 129.70752 561.188354 127.737778 561.188354 C 125.767975 561.188354 122.843155 561.338928 121.238159 561.52301 C 119.633156 561.707092 117.17598 562.093445 115.777763 562.381592 C 114.379578 562.669739 112.060448 563.267212 110.624176 563.709351 C 109.187897 564.151428 106.810173 564.994873 105.34034 565.583618 C 103.870476 566.172363 101.533775 567.256042 100.147644 567.991699 C 98.761497 568.727356 96.485817 570.085632 95.090553 571.010071 C 93.695313 571.934509 91.606155 573.46405 90.44799 574.409058 C 89.289841 575.354065 87.595253 576.82489 86.682259 577.677612 C 85.769279 578.530334 84.238724 580.123352 83.281021 581.217712 C 82.323318 582.312012 80.667618 584.401123 79.60173 585.860229 C 78.53582 587.319336 77.013023 589.647278 76.21772 591.033386 C 75.422417 592.419556 74.204338 594.793457 73.510887 596.308716 C 72.817436 597.823975 71.770943 600.496704 71.185356 602.248047 C 70.5998 603.999451 69.838921 606.762817 69.494514 608.388794 C 69.150124 610.014832 68.713959 612.714233 68.525269 614.387451 C 68.336601 616.06073 68.181778 619.041321 68.181221 621.011108 C 68.180679 622.980896 68.33506 625.961548 68.524284 627.634766 C 68.713516 629.308044 69.150124 632.007446 69.494514 633.633423 C 69.838921 635.25946 70.600052 638.02356 71.185921 639.775818 C 71.771797 641.528137 72.832893 644.265503 73.5439 645.858948 C 74.254906 647.452393 75.588753 650.018677 76.507973 651.561768 C 77.4272 653.104919 79.143501 655.666626 80.321976 657.254456 C 81.500481 658.842224 83.78714 661.497742 85.403465 663.155579 C 87.019798 664.813477 89.297287 666.941284 90.464554 667.884155 C 91.631828 668.826965 93.764931 670.387207 95.204758 671.351318 C 96.644592 672.315491 99.390343 673.895203 101.306435 674.861816 C 103.222504 675.82843 106.043694 677.068054 107.575752 677.616516 C 109.107788 678.165039 111.474838 678.903442 112.835831 679.257446 C 114.196831 679.611389 116.405365 680.087158 117.743698 680.314575 C 119.082008 680.541992 121.191742 680.833984 122.431976 680.963318 C 123.672188 681.092651 126.776093 681.149658 129.329498 681.089966 Z"/>
        <path id="path1" fill="#000000" fill-rule="evenodd" stroke="none"
              d="M 64.909264 437.754913 C 63.109676 437.733704 59.968357 437.355316 57.927509 436.911957 C 55.886673 436.468597 52.610279 435.249878 50.647202 434.203552 C 48.684132 433.157257 45.854122 430.991089 44.356197 429.389709 C 42.858284 427.78833 40.856903 424.813019 39.909184 422.776733 C 38.961498 420.740479 37.763416 417.467407 37.247616 415.504242 C 36.731789 413.541046 36.014275 408.320923 35.653404 403.903748 C 35.427128 401.134155 35.292446 391.716797 35.241673 374.158112 L 94.555374 374.158112 C 94.446907 392.688049 94.269623 403.952637 94.032425 406.155548 C 93.690369 409.332794 93.020889 413.541046 92.541634 415.504242 C 92.062408 417.467407 90.73027 420.988831 89.585411 423.330902 C 88.17112 426.224213 86.475761 428.531189 84.289581 430.529266 C 82.51989 432.146637 79.836586 434.052673 78.328354 434.761597 C 76.820122 435.470551 73.919212 436.441589 71.883217 436.921722 C 69.847176 437.401764 66.708847 437.776093 64.909264 437.754913 Z"/>
        <path id="--2" fill="#000000" fill-rule="evenodd" stroke="none"
              d="M 311.243713 683.632324 C 311.264923 681.832764 311.643311 678.691406 312.08667 676.650574 C 312.53006 674.609741 313.748749 671.333374 314.795105 669.370239 C 315.8414 667.407166 318.007568 664.577209 319.608948 663.079224 C 321.210358 661.58136 324.185638 659.579956 326.221893 658.632263 C 328.258209 657.68457 331.531219 656.48645 333.494415 655.970703 C 335.457581 655.454834 340.677704 654.737305 345.09491 654.376465 C 347.864471 654.150208 357.28183 654.015503 374.840546 653.964722 L 374.840546 713.278442 C 356.310577 713.169983 345.046051 712.992676 342.843079 712.755493 C 339.665863 712.413452 335.457581 711.743958 333.494415 711.264709 C 331.531219 710.785461 328.009827 709.453369 325.667755 708.308472 C 322.774414 706.894165 320.467438 705.198853 318.469391 703.012634 C 316.85199 701.242981 314.945984 698.559631 314.23703 697.051392 C 313.528107 695.543213 312.557037 692.642273 312.076935 690.606262 C 311.596893 688.570251 311.222565 685.431885 311.243713 683.632324 Z"/>
        <path id="--4" fill="#000000" fill-rule="evenodd" stroke="none"
              d="M 374.349609 713.642578 L 374.349609 654.201172 C 443.297729 654.141174 490.959564 653.93219 496.732422 653.640625 C 503.069031 653.320618 510.700897 652.665161 513.693359 652.183594 C 516.685791 651.702026 521.425964 650.643677 524.226563 649.832031 C 527.027283 649.020447 531.307678 647.442688 533.738281 646.326172 C 536.168945 645.209656 540.185913 642.929871 542.664063 641.261719 C 545.142151 639.593567 549.18042 636.125671 551.638672 633.552734 C 554.096741 630.979736 557.495361 626.619324 559.191406 623.863281 C 560.887573 621.1073 563.100403 616.708374 564.111328 614.087891 C 565.122314 611.467468 566.582275 606.513672 567.353516 603.078125 C 568.124817 599.642578 569.051819 594.421326 569.416016 591.476563 C 569.862244 587.86853 570.228271 552.169189 570.535156 482.013672 C 570.947632 387.73053 571.083679 377.429169 571.996094 372.849609 C 572.550171 370.068451 573.524231 366.052551 574.158203 363.925781 C 574.791931 361.798981 576.22113 358.184906 577.335938 355.894531 C 578.450439 353.604126 580.771912 349.745972 582.492188 347.320313 C 584.212402 344.894623 587.838318 340.7117 590.548828 338.025391 C 593.259399 335.339172 597.387512 331.870148 599.724609 330.316406 C 602.061584 328.762787 605.298645 326.989532 606.916016 326.375 C 608.533386 325.760437 611.334106 325.255859 613.140625 325.255859 C 614.947266 325.255859 617.297729 325.620392 618.365234 326.066406 C 619.432678 326.512451 621.432129 328.156952 622.808594 329.720703 C 624.611328 331.768738 625.719055 333.849243 626.763672 337.15625 C 627.561523 339.681427 628.537048 343.591339 628.933594 345.845703 C 629.475464 348.925079 629.723267 378.648987 629.927734 465.357422 C 630.112915 543.946289 629.993591 584.564087 629.554688 592.666016 C 629.200256 599.209961 628.347168 607.875854 627.658203 611.923828 C 626.969299 615.971802 625.515747 622.531677 624.427734 626.5 C 623.339844 630.468384 621.310608 636.39209 619.919922 639.664063 C 618.529236 642.936035 616.309204 647.620239 614.986328 650.074219 C 613.663574 652.528198 611.467834 656.275574 610.107422 658.402344 C 608.747009 660.529114 605.76062 664.680237 603.470703 667.625 C 601.180847 670.569763 596.387207 675.789063 592.818359 679.224609 C 589.249573 682.660156 584.307922 686.986511 581.837891 688.839844 C 579.367798 690.693115 574.639404 693.846497 571.330078 695.845703 C 568.020752 697.84491 562.683105 700.643799 559.46875 702.064453 C 556.25415 703.485168 551.602173 705.340637 549.130859 706.189453 C 546.659363 707.038208 541.973328 708.394958 538.71875 709.205078 C 535.464172 710.015198 529.992188 711.101135 526.556641 711.617188 C 523.121094 712.13324 516.561218 712.816772 511.980469 713.136719 C 507.539307 713.446899 456.357025 713.62854 374.349609 713.642578 Z M 316.767578 460.587891 C 315.117096 460.592804 313.134552 460.413971 311.777344 460.111328 C 309.967804 459.707855 306.957214 458.628418 305.085938 457.712891 C 303.2146 456.797333 300.163757 454.662506 298.306641 452.96875 C 296.449463 451.274933 293.89624 448.295563 292.634766 446.347656 C 291.37326 444.39978 289.922729 441.362762 289.410156 439.599609 C 288.897644 437.836639 288.486786 434.438538 288.496094 432.046875 C 288.508087 429.008209 288.94931 426.437714 289.964844 423.517578 C 290.764252 421.218994 292.653137 417.480896 294.162109 415.210938 C 295.671143 412.941101 298.891602 408.841614 301.318359 406.097656 C 303.745117 403.353546 366.011841 340.873016 439.689453 267.253906 C 513.367065 193.634888 580.79187 126.037292 589.517578 117.039063 C 598.243225 108.040894 607.203979 98.404053 609.429688 95.623047 C 611.655457 92.842224 614.465942 88.571838 615.675781 86.134766 C 617.674194 82.109619 617.875 81.25647 617.875 76.816406 C 617.875 72.332642 617.72467 71.717957 616.064453 69.351563 C 614.788818 67.533264 613.122009 66.199768 610.414063 64.837891 C 608.300964 63.775146 604.965149 62.508545 603.001953 62.021484 C 601.038757 61.534485 597.291382 60.854492 594.673828 60.511719 C 591.869568 60.14447 570.607788 59.781494 542.916016 59.628906 C 517.067444 59.486206 492.303925 59.104004 487.886719 58.779297 C 483.469604 58.454468 478.250275 57.767761 476.287109 57.251953 C 474.323914 56.736084 471.077759 55.551514 469.074219 54.619141 C 467.070587 53.686768 464.303772 51.905151 462.925781 50.660156 C 461.547943 49.415344 459.679169 47.311829 458.773438 45.984375 C 457.867737 44.656799 456.54718 42.005432 455.837891 40.09375 C 455.12851 38.18219 454.384247 34.676453 454.183594 32.302734 C 453.98291 29.929077 454.118652 26.272949 454.484375 24.177734 C 454.850067 22.082764 456.082062 18.468506 457.224609 16.148438 C 458.533752 13.490112 460.413544 10.893921 462.304688 9.125 C 463.955139 7.581177 467.24173 5.401733 469.607422 4.28125 C 472.476654 2.922119 475.965973 1.892334 480.091797 1.191406 C 485.85675 0.211731 494.055634 0.140625 600.857422 0.140625 C 714.841187 0.140625 715.471619 0.148926 721.685547 1.390625 C 725.302429 2.113342 729.489441 3.411011 731.632813 4.474609 C 733.668823 5.48468 736.28479 7.063477 737.445313 7.984375 C 738.605774 8.905212 740.608032 11.15741 741.894531 12.986328 C 743.181213 14.815247 744.768005 17.662476 745.419922 19.316406 C 746.071838 20.970215 747.071289 24.427673 747.642578 26.998047 C 748.605103 31.329529 748.697266 39.76825 748.925781 142.324219 C 749.093201 217.443604 748.97168 255.555481 748.541016 261.007813 C 748.1922 265.424927 747.484558 270.644226 746.96875 272.607422 C 746.452942 274.570587 745.268372 277.816742 744.335938 279.820313 C 743.403687 281.823822 741.621765 284.590881 740.376953 285.96875 C 739.132141 287.34671 737.005127 289.235962 735.650391 290.167969 C 734.295837 291.099976 731.485535 292.436279 729.40625 293.136719 C 727.326843 293.83725 723.840881 294.559418 721.660156 294.742188 C 719.479248 294.924988 716.022583 294.78009 713.978516 294.419922 C 711.93457 294.059998 708.416809 292.914337 706.162109 291.875 C 703.426819 290.614258 701.091064 288.956726 699.140625 286.894531 C 697.533081 285.194794 695.42334 282.223114 694.453125 280.289063 C 693.48291 278.35498 692.256348 275.031097 691.728516 272.904297 C 691.2005 270.777496 690.50293 266.495087 690.175781 263.386719 C 689.843872 260.23172 689.567383 239.73349 689.550781 216.984375 C 689.534302 194.571289 689.277954 171.215881 688.978516 165.083984 C 688.679077 158.952209 687.992615 151.542297 687.455078 148.617188 C 686.831116 145.221924 685.690369 141.725342 684.300781 138.945313 C 682.549255 135.441223 681.542053 134.201904 679.148438 132.601563 C 676.326111 130.714355 675.944702 130.622559 671.681641 130.816406 C 667.939331 130.986389 666.448364 131.386475 662.757813 133.21875 C 660.320862 134.428589 656.052673 137.239197 653.271484 139.464844 C 650.490295 141.690369 640.316406 151.185852 630.664063 160.566406 C 621.011719 169.947083 553.014099 237.766357 479.558594 311.273438 C 406.103149 384.780731 343.515228 447.017029 340.474609 449.576172 C 337.433929 452.135437 333.030823 455.235565 330.691406 456.464844 C 328.351929 457.694153 325.323364 459.036621 323.958984 459.447266 C 322.594604 459.857819 320.036072 460.342438 318.273438 460.521484 C 317.832825 460.566223 317.317749 460.586212 316.767578 460.587891 Z M 35.175781 382.642578 C 35.217957 294.953522 35.428535 241.099579 35.757813 236.615234 C 36.082142 232.198059 36.767521 225.773438 37.28125 222.337891 C 37.794933 218.902283 38.877159 213.435303 39.685547 210.1875 C 40.493973 206.939575 41.806149 202.342102 42.601563 199.972656 C 43.396976 197.603149 45.204971 193.033447 46.621094 189.816406 C 48.037239 186.599426 50.699242 181.422791 52.535156 178.314453 C 54.371071 175.205994 57.56839 170.388611 59.640625 167.607422 C 61.712826 164.826294 65.552261 160.301819 68.173828 157.552734 C 70.795448 154.803528 75.154526 150.613098 77.857422 148.240234 C 80.560379 145.867371 85.377838 142.194641 88.564453 140.078125 C 91.751099 137.961426 96.632889 135.014221 99.414063 133.53125 C 102.195236 132.048279 107.549728 129.619568 111.3125 128.132813 C 115.075272 126.645996 120.831543 124.734619 124.103516 123.886719 C 127.375488 123.038818 133.265045 121.829346 137.191406 121.197266 C 141.117783 120.565186 148.210724 119.774292 152.955078 119.441406 C 158.347229 119.062866 204.293091 118.834534 275.505859 118.833984 C 345.108826 118.833435 392.091675 119.062561 396.271484 119.419922 C 400.034271 119.741455 405.122192 120.438477 407.576172 120.970703 C 410.030151 121.503052 413.524475 122.68927 415.34375 123.605469 C 417.162903 124.521729 419.625641 126.348145 420.814453 127.664063 C 422.03952 129.02002 423.148895 130.987244 423.376953 132.203125 C 423.598328 133.382935 423.66156 135.786865 423.515625 137.546875 C 423.354858 139.485291 422.515289 142.230774 421.388672 144.509766 C 420.365692 146.579041 417.812256 150.413696 415.710938 153.03125 C 413.60965 155.648865 409.913208 159.510437 407.5 161.611328 C 405.086792 163.712341 401.18515 166.694336 398.826172 168.238281 C 396.467224 169.782288 392.49649 171.893921 390.003906 172.931641 C 387.511261 173.96936 383.143646 175.326721 380.300781 175.947266 C 377.457947 176.567749 372.193542 177.354492 368.599609 177.695313 C 364.408325 178.092773 329.639954 178.319397 271.638672 178.328125 C 221.904877 178.335693 175.802368 178.593201 169.189453 178.902344 C 162.576553 179.211365 154.678055 179.865662 151.634766 180.355469 C 148.591415 180.845032 143.720825 181.936462 140.8125 182.779297 C 137.904221 183.622009 133.623734 185.197632 131.300781 186.28125 C 128.977798 187.364929 125.048477 189.617249 122.570313 191.287109 C 120.092163 192.95697 116.053864 196.427063 113.595703 199 C 111.137527 201.572998 107.739014 205.933289 106.042969 208.689453 C 104.346863 211.445435 102.133621 215.846375 101.123047 218.466797 C 100.112518 221.08728 98.644424 226.040894 97.861328 229.476563 C 97.078201 232.912109 96.101578 239.605194 95.693359 244.349609 C 95.178589 250.331665 94.99099 284.014221 94.958984 382.642578 L 35.175781 382.642578 Z"/>
    </g>
</svg>
