<!-- Generated by IcoMoon.io -->
<svg version="1.1" xmlns="http://www.w3.org/2000/svg" width="1024" height="1024" viewBox="0 0 1024 1024">
<title></title>
<g id="icomoon-ignore">
</g>
<path d="M60.016 451.992h715.373l-262.040-262.040c-29.305-29.305-29.305-76.771 0-106.083s76.771-29.305 106.083 0l382.588 382.594c14.218 14.211 22.13 33.524 21.978 53.594-0.145 20.099-8.346 39.297-22.765 53.306l-378.845 367.588c-14.594 14.124-33.409 21.162-52.243 21.162-19.579 0-39.124-7.622-53.833-22.795-28.863-29.716-28.155-77.191 1.582-106.083l269.222-261.216h-727.099c-33.176 0-60.017-26.876-60.017-60.017 0.007-33.14 26.841-60.010 60.017-60.010z"></path>
</svg>
