<?xml version="1.0" encoding="UTF-8"?>
<!-- Generated by Pixelmator Pro 3.2.3 -->
<svg width="1024" height="1024" viewBox="0 0 1024 1024"
     xmlns="http://www.w3.org/2000/svg">
    <g id="icomoon-ignore"/>
    <path id="path1" fill="#000000" stroke="none"
          d="M 963.984009 451.992004 L 248.611023 451.992004 L 510.651001 189.952026 C 539.955994 160.646973 539.955994 113.18103 510.651001 83.869019 C 481.346008 54.557007 433.880005 54.564026 404.567993 83.869019 L 21.97998 466.463013 C 7.762024 480.674011 -0.150024 499.987 0.002014 520.057007 C 0.146973 540.156006 8.348022 559.354004 22.767029 573.362976 L 401.612 940.950989 C 416.205994 955.075012 435.020996 962.112976 453.85498 962.112976 C 473.434021 962.112976 492.979004 954.491028 507.687988 939.317993 C 536.550964 909.60199 535.842957 862.127014 506.106018 833.234985 L 236.883972 572.018982 L 963.982971 572.018982 C 997.158997 572.018982 1024 545.143005 1024 512.002014 C 1023.992981 478.862 997.158997 451.992004 963.982971 451.992004 Z"/>
</svg>
