<?xml version="1.0" encoding="UTF-8"?>
<!-- Generated by Pixelmator Pro 3.2.3 -->
<svg width="750" height="750" viewBox="0 0 750 750"
     xmlns="http://www.w3.org/2000/svg">
    <path id="-" fill="#000000" fill-rule="evenodd" stroke="none"
          d="M 331.816467 713.235596 C 237.127518 713.191101 156.710968 712.950684 153.113113 712.701355 C 149.515259 712.451965 144.296875 711.940979 141.516708 711.565918 C 138.736557 711.190796 133.919586 710.361816 130.812347 709.723755 C 127.705109 709.085693 122.620544 707.734619 119.513306 706.721436 C 116.406044 705.708191 111.589081 703.94751 108.808937 702.808838 C 106.028786 701.670105 101.747032 699.644714 99.293945 698.308044 C 96.840858 696.971313 92.577415 694.402649 89.819633 692.599854 C 87.061874 690.797119 82.512512 687.393616 79.709976 685.036621 C 76.907433 682.679565 72.436081 678.513611 69.773651 675.778931 C 67.111214 673.04425 63.393658 668.799683 61.512424 666.346619 C 59.631191 663.893555 56.979 660.147034 55.618668 658.020996 C 54.25835 655.89502 52.186893 652.397278 51.015453 650.248291 C 49.844021 648.099243 47.893394 644.085144 46.680729 641.327942 C 45.468067 638.570801 43.840126 634.421936 43.063068 632.108215 C 42.286015 629.794556 40.989071 625.245178 40.180962 621.998535 C 39.372856 618.751892 38.291523 613.285645 37.777988 609.851318 C 37.264454 606.417053 36.579025 599.994385 36.254814 595.578857 C 35.885216 590.545166 35.665333 523.555176 35.665333 415.983459 C 35.665333 308.411743 35.885216 241.421692 36.254814 236.388 C 36.579025 231.972473 37.264454 225.549866 37.777988 222.115479 C 38.291523 218.681213 39.372856 213.214966 40.180962 209.968384 C 40.989071 206.721619 42.3008 202.127319 43.095909 199.758728 C 43.891026 197.390137 45.699802 192.821045 47.115414 189.605164 C 48.531025 186.389282 51.190819 181.215881 53.026073 178.108704 C 54.861324 175.001465 58.057728 170.18457 60.129208 167.404358 C 62.200676 164.624084 66.039665 160.101013 68.660294 157.352844 C 71.28093 154.604675 75.635742 150.415527 78.337685 148.043579 C 81.039612 145.671509 85.856552 141.999878 89.042038 139.884033 C 92.227501 137.768188 97.108482 134.824219 99.888641 133.341736 C 102.668777 131.859314 108.020958 129.430481 111.782372 127.944214 C 115.54377 126.457886 121.297363 124.548523 124.56813 123.700989 C 127.838921 122.853516 133.726318 121.643066 137.651245 121.011169 C 141.576187 120.379211 148.667801 119.589783 153.410461 119.257019 C 158.800598 118.878723 204.728836 118.651489 275.915955 118.651001 C 345.493805 118.650452 392.459076 118.877625 396.63736 119.234741 C 400.398804 119.556213 405.483337 120.254639 407.936401 120.786682 C 410.389496 121.318909 413.884521 122.503479 415.703033 123.419434 C 417.521606 124.335327 419.981842 126.160828 421.170288 127.476257 C 422.394897 128.831909 423.505402 130.79718 423.733368 132.012634 C 423.95462 133.192078 424.016296 135.596619 423.870422 137.355896 C 423.709717 139.29364 422.87207 142.037842 421.74585 144.315979 C 420.723267 146.384583 418.16806 150.217834 416.067535 152.834473 C 413.967041 155.451111 410.27475 159.310303 407.862335 161.410461 C 405.450043 163.510681 401.546936 166.491821 399.188812 168.035217 C 396.83078 169.578674 392.862732 171.690247 390.370972 172.727478 C 387.879211 173.764832 383.515381 175.120972 380.673615 175.741272 C 377.831757 176.361389 372.567322 177.147644 368.974792 177.488281 C 364.785065 177.885559 330.030762 178.112671 272.050507 178.121338 C 222.334671 178.128967 176.249512 178.387817 169.639023 178.696716 C 163.028564 179.005737 155.13089 179.658936 152.088699 180.14856 C 149.046494 180.638062 144.178757 181.727844 141.271515 182.570374 C 138.364288 183.412903 134.085739 184.988464 131.763611 186.071655 C 129.441498 187.154968 125.514725 189.406921 123.03746 191.076172 C 120.560219 192.745483 116.522881 196.215576 114.065605 198.787598 C 111.608353 201.359558 108.210648 205.717957 106.515198 208.473022 C 104.81974 211.228027 102.606026 215.625305 101.595848 218.244934 C 100.58567 220.86438 99.118652 225.817444 98.335815 229.251709 C 97.552971 232.686157 96.578568 239.376312 96.170486 244.118958 C 95.600349 250.744568 95.42849 290.55423 95.42849 415.983459 C 95.42849 541.41272 95.600349 581.222351 96.170486 587.8479 C 96.578568 592.590576 97.552971 599.280823 98.335815 602.715088 C 99.118652 606.149414 100.58567 611.102539 101.595848 613.722046 C 102.606026 616.341492 104.806686 620.717651 106.486221 623.446777 C 108.165733 626.175903 111.290627 630.264709 113.430397 632.532959 C 115.57019 634.80127 119.085373 637.986572 121.24189 639.61145 C 123.398399 641.236267 127.571304 643.75824 130.514999 645.21582 C 133.45871 646.67334 138.272476 648.554932 141.212296 649.397095 C 144.152115 650.239197 149.004883 651.322083 151.996246 651.803467 C 154.98761 652.28479 162.617645 652.94043 168.951889 653.260315 C 175.835556 653.608032 241.833817 653.842041 333.00589 653.842041 C 424.177948 653.842041 490.176239 653.608032 497.059814 653.260315 C 503.394165 652.94043 511.024139 652.28479 514.015503 651.803467 C 517.006897 651.322083 521.745056 650.264465 524.544617 649.453186 C 527.344238 648.641846 531.622803 647.06488 534.05249 645.94873 C 536.482178 644.832581 540.497009 642.555054 542.974304 640.887573 C 545.451477 639.220032 549.488892 635.751343 551.946228 633.179321 C 554.403442 630.607361 557.801147 626.24884 559.496643 623.493835 C 561.192078 620.738831 563.406006 616.341492 564.416565 613.722046 C 565.427185 611.102539 566.884705 606.149414 567.655762 602.715088 C 568.426819 599.280823 569.35553 594.062439 569.719482 591.118713 C 570.165588 587.512024 570.529968 551.826538 570.836792 481.69635 C 571.249084 387.447205 571.387085 377.149139 572.299133 372.571289 C 572.853027 369.791138 573.824585 365.777008 574.458252 363.65097 C 575.091919 361.524994 576.521912 357.912262 577.636292 355.622742 C 578.750488 353.333191 581.069214 349.475952 582.788696 347.051239 C 584.508423 344.626495 588.132202 340.445496 590.841736 337.760223 C 593.551331 335.074982 597.679749 331.607147 600.015991 330.054077 C 602.352173 328.500916 605.586365 326.7276 607.203186 326.113312 C 608.819885 325.498962 611.6203 324.996338 613.42627 324.996338 C 615.232117 324.996338 617.582764 325.361115 618.649841 325.806946 C 619.716919 326.252838 621.71582 327.896637 623.091797 329.459839 C 624.893799 331.50705 625.999146 333.585907 627.043457 336.891693 C 627.840942 339.415955 628.817688 343.325073 629.214172 345.578552 C 629.755737 348.65686 630.002686 378.367859 630.207031 465.045105 C 630.39209 543.605591 630.273315 584.209106 629.834595 592.308105 C 629.480286 598.849609 628.62677 607.512573 627.93811 611.559082 C 627.24939 615.60553 625.796204 622.161987 624.708618 626.128906 C 623.621094 630.095825 621.59375 636.017578 620.203552 639.28833 C 618.813477 642.559143 616.593933 647.24231 615.271667 649.695374 C 613.949341 652.148438 611.754639 655.89502 610.394714 658.020996 C 609.03479 660.147034 606.049194 664.294922 603.760071 667.238647 C 601.471008 670.182373 596.67926 675.400757 593.111694 678.835022 C 589.54425 682.269348 584.605164 686.595032 582.135925 688.447693 C 579.666748 690.300293 574.939758 693.451172 571.631653 695.449646 C 568.323486 697.44812 562.987732 700.245178 559.774414 701.665344 C 556.561035 703.085571 551.910706 704.941711 549.440369 705.790222 C 546.969849 706.638672 542.286682 707.995422 539.033264 708.805237 C 535.779846 709.615051 530.308167 710.699707 526.873779 711.215576 C 523.439514 711.731445 516.883057 712.415161 512.303955 712.734985 C 507.130859 713.096252 438.788483 713.285828 331.816467 713.235596 Z M 318.666229 460.209717 C 316.904236 460.388641 313.982574 460.204956 312.173645 459.801575 C 310.364716 459.398193 307.354218 458.319336 305.483612 457.404144 C 303.612946 456.488922 300.563507 454.354828 298.707062 452.661682 C 296.850586 450.968567 294.299927 447.990112 293.038879 446.042938 C 291.777832 444.095764 290.326935 441.060699 289.814514 439.298279 C 289.302185 437.535858 288.890686 434.137756 288.900024 431.746918 C 288.911987 428.709412 289.354797 426.141479 290.369904 423.222321 C 291.168976 420.924622 293.056946 417.188202 294.56543 414.919128 C 296.073853 412.650116 299.292908 408.549347 301.718811 405.806274 C 304.144714 403.063232 366.389465 340.606842 440.040558 267.014374 C 513.691589 193.421814 581.088135 125.850342 589.810669 116.85553 C 598.533203 107.860535 607.490173 98.226624 609.715027 95.446777 C 611.939941 92.666931 614.749756 88.399231 615.959351 85.963074 C 617.95697 81.939331 618.158203 81.086487 618.158203 76.64801 C 618.158203 72.165894 618.008728 71.549133 616.349121 69.183533 C 615.074097 67.365967 613.406555 66.03479 610.699585 64.673401 C 608.58728 63.611084 605.25354 62.343567 603.290955 61.85675 C 601.328552 61.369995 597.582092 60.691406 594.965515 60.348694 C 592.16217 59.981567 570.909241 59.619263 543.227722 59.466675 C 517.388489 59.324158 492.634644 58.941895 488.219116 58.61731 C 483.803619 58.292664 478.585205 57.605103 476.622742 57.0896 C 474.660278 56.573975 471.415985 55.389343 469.413147 54.457336 C 467.410339 53.52533 464.644714 51.744568 463.267273 50.500183 C 461.889893 49.255676 460.022186 47.151917 459.11676 45.82489 C 458.211426 44.497803 456.890503 41.848572 456.181458 39.937622 C 455.472382 38.026672 454.728149 34.521912 454.527527 32.149048 C 454.326996 29.776306 454.461945 26.121399 454.827515 24.0271 C 455.193085 21.9328 456.426636 18.321838 457.568787 16.002747 C 458.877472 13.345276 460.7547 10.748413 462.645142 8.980225 C 464.294952 7.436951 467.579681 5.257813 469.944458 4.137695 C 472.812653 2.779053 476.302246 1.751343 480.426514 1.050476 C 486.189331 0.071228 494.384766 0 601.147949 0 C 715.090637 0 715.719421 0.006409 721.931152 1.24762 C 725.546631 1.970093 729.733032 3.26825 731.875732 4.331421 C 733.91095 5.341187 736.525391 6.920593 737.685486 7.841187 C 738.845459 8.761658 740.846863 11.010803 742.132935 12.838989 C 743.419067 14.667236 745.004578 17.515808 745.656128 19.169128 C 746.307861 20.822388 747.308289 24.277344 747.879333 26.846863 C 748.841492 31.176575 748.935547 39.611206 749.16394 142.130127 C 749.331238 217.222412 749.206848 255.319977 748.776428 260.770142 C 748.427673 265.185699 747.720581 270.404083 747.204895 272.366547 C 746.68927 274.32901 745.504761 277.573364 744.572693 279.576141 C 743.640686 281.578979 741.859863 284.344666 740.61554 285.722015 C 739.371216 287.099426 737.245117 288.988708 735.89093 289.920349 C 734.536865 290.85202 731.728271 292.187256 729.649597 292.887421 C 727.571045 293.587677 724.08667 294.31012 721.906677 294.492889 C 719.726563 294.675629 716.27124 294.53067 714.227966 294.170776 C 712.184692 293.810913 708.668945 292.666443 706.414978 291.627502 C 703.680725 290.367188 701.344788 288.710663 699.395142 286.6492 C 697.788208 284.950043 695.679871 281.977966 694.710022 280.044556 C 693.740051 278.111237 692.514771 274.789917 691.987122 272.66394 C 691.45929 270.537872 690.759949 266.256165 690.433044 263.148895 C 690.101196 259.995056 689.825439 239.504272 689.808777 216.763306 C 689.792358 194.358459 689.533875 171.012207 689.234619 164.882629 C 688.935303 158.753113 688.25061 151.345642 687.713318 148.421631 C 687.089539 145.027649 685.949402 141.531128 684.560364 138.752258 C 682.809448 135.24939 681.80365 134.010803 679.41095 132.411011 C 676.589661 130.524536 676.207825 130.433228 671.946289 130.626953 C 668.205322 130.796997 666.715271 131.198364 663.026001 133.030029 C 660.589966 134.239563 656.322266 137.049194 653.542053 139.274048 C 650.761963 141.498718 640.592773 150.991272 630.94397 160.368286 C 621.295227 169.745544 553.32251 237.53833 479.893555 311.018982 C 406.4646 384.499695 343.899414 446.713409 340.859894 449.271606 C 337.820313 451.829865 333.420044 454.928436 331.081421 456.157318 C 328.742798 457.38623 325.713531 458.727539 324.34964 459.138031 C 322.985748 459.548431 320.428223 460.030762 318.666229 460.209717 Z"/>
</svg>
