<?xml version="1.0" encoding="UTF-8"?>
<!-- Generated by Pixelmator Pro 3.2.3 -->
<svg width="750" height="750" viewBox="0 0 750 750"
     xmlns="http://www.w3.org/2000/svg">
    <path id="path1" fill="#28c54a" fill-rule="evenodd" stroke="none"
          d="M 349 545.913086 C 344.325012 545.888489 338.024994 545.213501 335 544.413086 C 331.975006 543.612671 325.899994 541.234741 321.5 539.128784 C 317.100006 537.022888 309.214844 532.419922 303.977417 528.899902 C 298.73999 525.380005 287.714966 517.362061 279.477417 511.082428 C 271.239838 504.802765 254.600006 491.794647 242.5 482.175507 C 230.399994 472.556366 215.75238 459.919281 209.949738 454.093079 C 204.147079 448.266876 197.698502 440.681732 195.619537 437.237183 C 193.540573 433.792633 190.928635 428.392639 189.815216 425.237183 C 188.701797 422.081726 187.552353 416.067474 187.260895 411.872192 C 186.84137 405.833496 187.172318 402.812683 188.849487 397.372192 C 190.014664 393.592499 192.374969 388.066315 194.094574 385.091797 C 195.814194 382.117279 199.422836 377.481934 202.113754 374.791016 C 205.14032 371.764435 209.960999 368.487518 214.753189 366.199188 C 222.100449 362.690796 223.019775 362.5 232.577591 362.5 C 240.440735 362.5 244.286179 363.02243 250.077591 364.877563 C 254.159912 366.185242 261.325012 369.220001 266 371.62149 C 270.674988 374.02298 279 378.464386 284.5 381.491302 C 290 384.51825 297.975403 388.346924 302.223145 389.999481 C 306.470856 391.652069 313.289093 393.501343 317.374817 394.109009 C 322.979095 394.942535 326.570465 394.915802 331.999298 394.000122 C 336.48053 393.244263 342.270782 391.253082 347.347626 388.722076 C 353.990417 385.41037 357.351715 382.791473 365.5 374.578888 C 371.212036 368.821808 379.813538 358.496857 385.559662 350.5 C 391.092468 342.799988 408.137726 318.049988 423.438019 295.5 C 438.738312 272.950012 455.639771 248.649994 460.996826 241.5 C 466.353882 234.349976 474.33847 225.062866 478.740356 220.861938 C 484.566895 215.301392 489.057465 212.077393 495.249969 209.00885 C 502.631897 205.350952 504.869446 204.724426 512.17981 204.268372 C 518.449341 203.877197 522.113708 204.181824 526.509033 205.459595 C 529.75708 206.403809 534.479065 208.222534 537.00238 209.501221 C 539.525696 210.779846 543.892517 213.895996 546.706482 216.426025 C 549.520447 218.955994 553.403137 223.406921 555.334717 226.316956 C 557.266296 229.22699 559.781189 234.381958 560.92334 237.7724 C 562.401367 242.159821 563 246.474243 563 252.738556 C 563 258.523193 562.295898 264.104156 560.945923 269.020111 C 559.816162 273.134033 556.717834 280.831268 554.060791 286.125031 C 551.403687 291.418793 546.436951 300.193787 543.023499 305.625031 C 539.610107 311.056274 509.552216 355.549988 476.228241 404.5 C 442.904297 453.450012 411.280792 499.350006 405.953827 506.5 C 400.626831 513.650024 393.250824 522.542603 389.562714 526.261292 C 385.874573 529.97998 380.108185 534.889282 376.748505 537.170776 C 373.388794 539.452332 367.683472 542.362732 364.069977 543.638428 C 359.106812 545.390564 355.421143 545.946899 349 545.913086 Z"/>
    <path id="-" fill="#28c54a" fill-rule="evenodd" stroke="none"
          d="M 375 750 C 167.893433 750 0 582.106567 0 375 C 0 167.893372 167.893433 0 375 0 C 582.106628 0 750 167.893372 750 375 C 750 582.106567 582.106628 750 375 750 Z M 375 670.894531 C 539.637329 670.894531 673.101563 538.417847 673.101563 375 C 673.101563 211.582153 539.637329 79.105469 375 79.105469 C 210.362686 79.105469 76.898438 211.582153 76.898438 375 C 76.898438 538.417847 210.362686 670.894531 375 670.894531 Z"/>
</svg>
