<?xml version="1.0" encoding="UTF-8"?>
<!-- Generated by Pixelmator Pro 3.2.3 -->
<svg width="750" height="750" viewBox="0 0 750 750"
     xmlns="http://www.w3.org/2000/svg">
    <path id="path1" fill="#ff9400" fill-rule="evenodd" stroke="none"
          d="M 379 582.244202 C 374.875 582.51709 369.924988 582.554199 368 582.326782 C 366.075012 582.099365 362.048523 581.21936 359.052277 580.371216 C 356.05603 579.523071 350.881042 577.458801 347.552277 575.783936 C 343.570618 573.780518 338.557495 569.789795 332.899261 564.119324 C 326.612823 557.819275 323.478119 553.750977 321.249542 549 C 319.572571 545.424988 317.603363 539.799988 316.873505 536.5 C 316.143616 533.200012 315.631989 526.565308 315.736511 521.756226 C 315.874023 515.429993 316.608368 511.051819 318.392487 505.92157 C 319.748749 502.021667 322.352783 496.344971 324.179199 493.306763 C 326.005646 490.268555 330.907532 484.569122 335.072296 480.641388 C 339.23703 476.713623 344.865173 472.293945 347.579254 470.819885 C 350.293304 469.345795 356.325562 467.151703 360.984253 465.944122 C 367.66864 464.211456 371.251556 463.852783 377.977295 464.243103 C 383.475616 464.562164 389.141449 465.659729 393.943604 467.335968 C 398.037567 468.765015 403.774139 471.578186 406.691528 473.587463 C 409.608887 475.596741 414.69754 480.128845 417.999634 483.658783 C 421.301727 487.188721 425.35733 492.422058 427.012115 495.288422 C 428.666901 498.154785 430.916138 503.359894 432.010406 506.855347 C 433.45343 511.464783 433.996735 515.997559 433.988129 523.355347 C 433.981598 528.937012 433.333496 535.914978 432.547241 538.869019 C 431.761292 541.822021 429.893829 546.740601 428.397369 549.799316 C 426.900909 552.857971 422.418793 558.770325 418.437134 562.937866 C 414.455475 567.105408 408.340759 572.211243 404.848877 574.284119 C 401.356995 576.356934 395.799988 578.884338 392.5 579.900513 C 389.200012 580.916626 383.125 581.971313 379 582.244202 Z M 384.287201 435.39801 C 377.80423 435.609863 368.201477 435.494446 362.947754 435.141571 C 356.385956 434.700867 352.557434 433.949188 350.718567 432.74057 C 349.246246 431.772888 347.366058 429.674744 346.540344 428.078033 C 345.711639 426.475464 343.683685 414.71991 342.01355 401.837433 C 340.349518 389.001862 337.409302 368.356232 335.479736 355.958313 C 333.550171 343.560394 330.397064 324.210419 328.472809 312.958313 C 326.548553 301.706238 323.121704 282.375 320.857605 270 C 317.76181 253.079315 316.618103 243.972321 316.24527 233.273682 C 315.782532 219.99469 315.922241 218.49646 318.343536 210.773682 C 319.770264 206.223145 322.63913 199.628479 324.718781 196.118774 C 326.798462 192.609131 331.322479 187.147095 334.772156 183.981018 C 338.221832 180.814941 344.181061 176.576172 348.014862 174.561523 C 351.848694 172.546936 358.026245 170.254211 361.742737 169.466675 C 365.459229 168.679077 371.690521 168.026917 375.590027 168.017334 C 379.489563 168.007813 386.224213 168.906433 390.555969 170.014343 C 394.97226 171.143799 401.339783 173.756226 405.05188 175.961487 C 408.692902 178.124573 414.435577 182.848755 417.813416 186.459717 C 421.863098 190.788818 425.340424 195.88739 428.022583 201.428772 C 430.259796 206.050781 432.591461 212.527771 433.204102 215.822021 C 433.897797 219.552185 434.077881 226.656555 433.681549 234.655762 C 433.331512 241.720093 431.463287 257.287994 429.529907 269.251129 C 427.596527 281.214264 423.759949 304.839264 421.004211 321.751129 C 418.248474 338.662994 414.41272 363.975006 412.480347 378 C 410.547974 392.024994 408.069672 409.094757 406.973022 415.9328 C 405.667145 424.075439 404.379639 429.028015 403.241913 430.285187 C 402.286469 431.340942 400.282898 432.836578 398.789551 433.608826 C 397.071381 434.497314 391.746307 435.154297 384.287201 435.39801 Z"/>
    <path id="path2" fill="#ff9400" fill-rule="evenodd" stroke="none"
          d="M 375 750 C 167.893433 750 0 582.106567 0 375 C 0 167.893372 167.893433 0 375 0 C 582.106628 0 750 167.893372 750 375 C 750 582.106567 582.106628 750 375 750 Z M 375 670.894531 C 539.637329 670.894531 673.101563 538.417847 673.101563 375 C 673.101563 211.582153 539.637329 79.105469 375 79.105469 C 210.362686 79.105469 76.898438 211.582153 76.898438 375 C 76.898438 538.417847 210.362686 670.894531 375 670.894531 Z"/>
</svg>
